<svg xmlns="http://www.w3.org/2000/svg" xmlns:xlink="http://www.w3.org/1999/xlink" version="1.1" width="256" height="256" viewBox="0 0 256 256" xml:space="preserve">
<g style="stroke: none; stroke-width: 0; stroke-dasharray: none; stroke-linecap: butt; stroke-linejoin: miter; stroke-miterlimit: 10; fill: none; fill-rule: nonzero; opacity: 1;" transform="translate(1.4065934065934016 1.4065934065934016) scale(2.81 2.81)">
	<polygon points="13.42,43.42 7.89,43.42 7.89,45 13.42,45 13.42,51.32 4.74,51.32 1.58,48.16 1.58,31.58 7.89,31.58 7.89,37.1 13.42,37.1 " style="stroke: none; stroke-width: 1; stroke-dasharray: none; stroke-linecap: butt; stroke-linejoin: miter; stroke-miterlimit: 10; fill: rgb(255,255,255); fill-rule: nonzero; opacity: 1;" transform="  matrix(1 0 0 1 0 0) "/>
	<polygon points="37.1,51.32 18.16,51.32 15,48.16 15,37.1 21.32,37.1 21.32,45 22.89,45 22.89,37.1 29.21,37.1 29.21,45 30.79,45 30.79,37.1 37.1,37.1 " style="stroke: none; stroke-width: 1; stroke-dasharray: none; stroke-linecap: butt; stroke-linejoin: miter; stroke-miterlimit: 10; fill: rgb(255,255,255); fill-rule: nonzero; opacity: 1;" transform="  matrix(1 0 0 1 0 0) "/>
	<rect x="38.68" y="37.1" rx="0" ry="0" width="6.32" height="14.21" style="stroke: none; stroke-width: 1; stroke-dasharray: none; stroke-linecap: butt; stroke-linejoin: miter; stroke-miterlimit: 10; fill: rgb(255,255,255); fill-rule: nonzero; opacity: 1;" transform=" matrix(1 0 0 1 0 0) "/>
	<rect x="38.68" y="31.58" rx="0" ry="0" width="6.32" height="3.95" style="stroke: none; stroke-width: 1; stroke-dasharray: none; stroke-linecap: butt; stroke-linejoin: miter; stroke-miterlimit: 10; fill: rgb(255,255,255); fill-rule: nonzero; opacity: 1;" transform=" matrix(1 0 0 1 0 0) "/>
	<polygon points="58.42,43.42 52.9,43.42 52.9,45 58.42,45 58.42,51.32 49.74,51.32 46.58,48.16 46.58,31.58 52.9,31.58 52.9,37.1 58.42,37.1 " style="stroke: none; stroke-width: 1; stroke-dasharray: none; stroke-linecap: butt; stroke-linejoin: miter; stroke-miterlimit: 10; fill: rgb(255,255,255); fill-rule: nonzero; opacity: 1;" transform="  matrix(1 0 0 1 0 0) "/>
	<polygon points="72.63,43.42 66.32,43.42 66.32,45 72.63,45 72.63,51.32 63.16,51.32 60,48.16 60,40.26 63.16,37.1 72.63,37.1 " style="stroke: none; stroke-width: 1; stroke-dasharray: none; stroke-linecap: butt; stroke-linejoin: miter; stroke-miterlimit: 10; fill: rgb(255,255,255); fill-rule: nonzero; opacity: 1;" transform="  matrix(1 0 0 1 0 0) "/>
	<polygon points="88.42,51.32 82.11,51.32 82.11,43.42 80.53,43.42 80.53,51.32 74.21,51.32 74.21,31.58 80.53,31.58 80.53,37.1 85.26,37.1 88.42,40.26 " style="stroke: none; stroke-width: 1; stroke-dasharray: none; stroke-linecap: butt; stroke-linejoin: miter; stroke-miterlimit: 10; fill: rgb(255,255,255); fill-rule: nonzero; opacity: 1;" transform="  matrix(1 0 0 1 0 0) "/>
	<path d="M 86.053 35.526 h -3.947 V 30 h -8.668 l -3.986 5.526 h -7.083 L 60 37.895 v -2.368 h -5.526 V 30 H 37.105 v 5.526 H 12.671 L 8.684 30 H 0 v 18.947 L 11.053 60 h 11.053 v -3.158 L 25.263 60 h 21.316 v -3.158 L 49.737 60 H 60 v -3.158 L 63.158 60 h 19.737 L 90 52.895 V 39.474 L 86.053 35.526 z M 13.421 43.421 H 7.895 V 45 h 5.526 v 6.316 H 4.737 l -3.158 -3.158 V 31.579 h 6.316 v 5.526 h 5.526 V 43.421 z M 37.105 51.316 H 18.158 L 15 48.158 V 37.105 h 6.316 V 45 h 1.579 v -7.895 h 6.316 V 45 h 1.579 v -7.895 h 6.316 V 51.316 z M 45 51.316 h -6.316 V 37.105 H 45 V 51.316 z M 45 35.526 h -6.316 v -3.947 H 45 V 35.526 z M 58.421 43.421 h -5.526 V 45 h 5.526 v 6.316 h -8.684 l -3.158 -3.158 V 31.579 h 6.316 v 5.526 h 5.526 V 43.421 z M 72.632 43.421 h -6.316 V 45 h 6.316 v 6.316 h -9.474 L 60 48.158 v -7.895 l 3.158 -3.158 h 9.474 V 43.421 z M 88.421 51.316 h -6.316 v -7.895 h -1.579 v 7.895 h -6.316 V 31.579 h 6.316 v 5.526 h 4.737 l 3.158 3.158 V 51.316 z" style="stroke: none; stroke-width: 1; stroke-dasharray: none; stroke-linecap: butt; stroke-linejoin: miter; stroke-miterlimit: 10; fill: rgb(0,0,0); fill-rule: nonzero; opacity: 1;" transform=" matrix(1 0 0 1 0 0) " stroke-linecap="round"/>
</g>
</svg>